# xmcd
#
# Track frame offsets:
#	150
#	11830
#	24380
#	46184
#	65535
#	79895
#	94180
#	110448
#	123963
#	140814
#	152934
#	170218
#	184588
#	197993
#	207864
#	220453
#	232804
#
# Disc length: 3279 seconds
# Revision: 0
# Processed by: cddbd v1.5.2PL0 Copyright (c) Steve Scherf et al.
# Submitted via: dBpowerAMP V12.0
#
DISCID=f50ccd11
DTITLE=Various Artist - Bluegrass Blueprint
DYEAR=2002
DGENRE=Bluegrass
TTITLE0=Mil-Town Ramblers - Stay Away From Me
TTITLE1=Pike Creek Bluegrass Band - The Barn's Coming Down
TTITLE2=Smoked Chubs - Faded Love
TTITLE3=Big Cedar - Angel Band
TTITLE4=Blue Eagle - Scuppernong Creek
TTITLE5=Pickin' Up Speed - Poverty Gulch
TTITLE6=Sawdust Symphony - It's All The Same
TTITLE7=Piper Road Spring Band - Gravel Chub Polka
TTITLE8=Smoked Chubs - Louise
TTITLE9=Pike Creek Bluegrass Band - Hawthorne
TTITLE10=Scuppoernong Creek - Kentucky Wind
TTITLE11=Big Cedar - Sunny Side of the Mountain
TTITLE12=Pickin' Up Speed - Rocky Top
TTITLE13=Sawdust Symphony - Low Down Hoe Down
TTITLE14=Mil-Town Ramblers - Why Do You Do
TTITLE15=Piper Road Spring Road - Kettle Moraine
TTITLE16=Salt Creek - Old Joe Clark
EXTD=
EXTT0=
EXTT1=
EXTT2=
EXTT3=
EXTT4=
EXTT5=
EXTT6=
EXTT7=
EXTT8=
EXTT9=
EXTT10=
EXTT11=
EXTT12=
EXTT13=
EXTT14=
EXTT15=
EXTT16=
PLAYORDER=
